<?xml version="1.0" encoding="UTF-8"?>
<svg width="74px" height="75px" viewBox="0 0 74 75" version="1.1" xmlns="http://www.w3.org/2000/svg" xmlns:xlink="http://www.w3.org/1999/xlink">
    <!-- Generator: Sketch 48.2 (47327) - http://www.bohemiancoding.com/sketch -->
    <title>Medium</title>
    <desc>Created with Sketch.</desc>
    <defs>
        <path d="M32.9998867,0 C51.2262983,0 66,14.7757407 66,33.0001133 C66,51.2265249 51.2262983,66 32.9998867,66 C14.7734751,66 0,51.2262983 0,33.0001133 C0,14.7757407 14.7737017,0 32.9998867,0 Z" id="path-1"></path>
        <filter x="-11.4%" y="-6.8%" width="122.7%" height="122.7%" filterUnits="objectBoundingBox" id="filter-2">
            <feOffset dx="0" dy="3" in="SourceAlpha" result="shadowOffsetOuter1"></feOffset>
            <feGaussianBlur stdDeviation="2" in="shadowOffsetOuter1" result="shadowBlurOuter1"></feGaussianBlur>
            <feColorMatrix values="0 0 0 0 0   0 0 0 0 0   0 0 0 0 0  0 0 0 0.339419158 0" type="matrix" in="shadowBlurOuter1"></feColorMatrix>
        </filter>
        <polygon id="path-3" points="0.225829268 0.00840776088 29.9321707 0.00840776088 29.9321707 23.8636364 0.225829268 23.8636364"></polygon>
        <polygon id="path-5" points="0 0.00836457357 29.9497869 0.00836457357 29.9497869 23.8635932 0 23.8635932"></polygon>
    </defs>
    <g id="Page-principale" stroke="none" stroke-width="1" fill="none" fill-rule="evenodd" transform="translate(-42.000000, -530.000000)">
        <g id="Medium" transform="translate(46.000000, 531.500000)">
            <g id="Shape" fill-rule="nonzero">
                <use fill="black" fill-opacity="1" filter="url(#filter-2)" xlink:href="#path-1"></use>
                <use fill="#FFFFFF" fill-rule="evenodd" xlink:href="#path-1"></use>
            </g>
            <g id="Page-1" transform="translate(15.000000, 21.000000)">
                <g id="Group-3" transform="translate(6.000000, 0.000000)">
                    <mask id="mask-4" fill="white">
                        <use xlink:href="#path-3"></use>
                    </mask>
                    <g id="Clip-2"></g>
                    <path d="M29.1880244,16.0694037 C29.6609512,14.7802753 29.9321707,13.3922481 29.9321707,11.9373044 C29.9321707,11.4265733 29.8897317,10.9269131 29.8277805,10.4329112 C29.5548537,7.72721767 28.4250976,5.46164831 26.4348537,3.45242854 C23.8250976,0.817341846 20.3868049,-0.0471614339 16.8870488,0.0111445642 L12.0497317,0.0111445642 C5.5194878,0.0111445642 0.225829268,5.3506947 0.225829268,11.9373044 C0.225829268,18.52416 5.53753659,23.8637102 12.0497317,23.8637102 C18.5616829,23.8637102 21.6507073,22.1137922 29.831439,23.8637102 C27.443878,20.4443217 28.3448537,18.6427402 29.1880244,16.0694037" id="Fill-1" fill="#1085C4" mask="url(#mask-4)"></path>
                </g>
                <g id="Group-6">
                    <mask id="mask-6" fill="white">
                        <use xlink:href="#path-5"></use>
                    </mask>
                    <g id="Clip-5"></g>
                    <path d="M0.750196721,7.80259724 C0.273393443,9.09172563 -4.91803279e-05,10.4797528 -4.91803279e-05,11.9346966 C-4.91803279e-05,12.4454276 0.0427377049,12.9450879 0.105196721,13.4390897 C0.380360656,16.1447833 1.51937705,18.4103526 3.52593443,20.4195724 C6.15708197,23.0546591 9.62355738,23.9191624 13.152,23.8608564 L18.0289672,23.8608564 C24.6127377,23.8608564 29.9497869,18.5213062 29.9497869,11.9346966 C29.9497869,5.34784091 24.594541,0.00829076851 18.0289672,0.00829076851 C11.4636393,0.00829076851 8.34929508,1.75820876 0.101508197,0.00829076851 C2.50863934,3.42767924 1.60027869,5.22926078 0.750196721,7.80259724" id="Fill-4" fill="#00C2CC" mask="url(#mask-6)"></path>
                </g>
                <path d="M30,12 C30,18.6273246 24.6273801,24 18.000124,24 C11.3726199,24 6,18.6273246 6,12 C6,5.37242747 11.3726199,0 18.000124,0 C24.6273801,0 30,5.37242747 30,12" id="Fill-7" fill="#025599"></path>
                <path d="M17.3050356,16 C17.1214093,16 16.9456323,15.9242552 16.8159997,15.7897896 L14.2026549,13.0777793 C13.9324484,12.7974988 13.9324484,12.3432765 14.2026549,12.062996 C14.4728615,11.7827154 14.9107579,11.7827154 15.1809645,12.062996 L17.2874341,14.2494803 L21.8031664,9.22762277 C22.0626694,8.93895356 22.5029444,8.9221762 22.7800488,9.19258771 C23.0597697,9.46176558 23.0745169,9.91598783 22.8138246,10.2058907 L17.8104836,15.7715319 C17.6834675,15.9143861 17.5050741,15.997286 17.3171663,16 L17.3050356,16 Z" id="Fill-9" fill="#FFFFFF"></path>
            </g>
        </g>
    </g>
</svg>