<?xml version="1.0" encoding="UTF-8"?>
<svg width="74px" height="74px" viewBox="0 0 74 74" version="1.1" xmlns="http://www.w3.org/2000/svg" xmlns:xlink="http://www.w3.org/1999/xlink">
    <!-- Generator: Sketch 48.2 (47327) - http://www.bohemiancoding.com/sketch -->
    <title>Instagram</title>
    <desc>Created with Sketch.</desc>
    <defs>
        <path d="M32.9998867,0 C51.2262983,0 66,14.7757407 66,33.0001133 C66,51.2265249 51.2262983,66 32.9998867,66 C14.7734751,66 0,51.2262983 0,33.0001133 C0,14.7757407 14.7737017,0 32.9998867,0 Z" id="path-1"></path>
        <filter x="-11.4%" y="-6.8%" width="122.7%" height="122.7%" filterUnits="objectBoundingBox" id="filter-2">
            <feOffset dx="0" dy="3" in="SourceAlpha" result="shadowOffsetOuter1"></feOffset>
            <feGaussianBlur stdDeviation="2" in="shadowOffsetOuter1" result="shadowBlurOuter1"></feGaussianBlur>
            <feColorMatrix values="0 0 0 0 0   0 0 0 0 0   0 0 0 0 0  0 0 0 0.339419158 0" type="matrix" in="shadowBlurOuter1"></feColorMatrix>
        </filter>
        <polygon id="path-3" points="0 0.1625 49.1489362 0.1625 49.1489362 12.5125 0 12.5125"></polygon>
    </defs>
    <g id="Page-principale" stroke="none" stroke-width="1" fill="none" fill-rule="evenodd" transform="translate(-42.000000, -629.000000)">
        <g id="Instagram" transform="translate(46.000000, 630.000000)">
            <g id="Shape" fill-rule="nonzero">
                <use fill="black" fill-opacity="1" filter="url(#filter-2)" xlink:href="#path-1"></use>
                <use fill="#FFFFFF" fill-rule="evenodd" xlink:href="#path-1"></use>
            </g>
            <g id="Page-1" transform="translate(9.000000, 9.000000)">
                <path d="M18.1052632,5.56818182 L18.1052632,5.67424242 L18.1052632,5.99242424 L18,42.5833333 L18,43.3257576 L18,43.6439394 C18.1052632,45.0227273 18.6315789,46.2954545 19.6842105,47.25 C22,49.5833333 25.7894737,49.5833333 28.2105263,47.25 C29.1578947,46.2954545 29.7894737,45.0227273 29.8947368,43.75 L29.8947368,43.5378788 L29.8947368,42.5833333 L30,6.31060606 L30,5.78030303 L30,5.46212121 C29.8947368,4.08333333 29.3684211,2.81060606 28.3157895,1.75 C26,-0.583333333 22.2105263,-0.583333333 19.7894737,1.75 C18.7368421,2.59848485 18.1052632,4.08333333 18.1052632,5.56818182" id="Fill-1" fill="#FFFFFF"></path>
                <path d="M20,10.4072753 L20,10.7239658 L20,38.1704708 L20,38.6982882 L20,38.9094151 C20.1046512,39.8594864 20.5232558,40.9151213 21.255814,41.6540656 C23.0348837,43.4486448 25.8604651,43.4486448 27.6395349,41.6540656 C28.372093,40.9151213 28.7906977,39.9650499 28.8953488,39.0149786 L28.8953488,38.8038516 L28.8953488,38.0649073 L29,10.8295292 L29,10.4072753 L29,10.1961484 C28.8953488,9.14051355 28.4767442,8.19044223 27.744186,7.34593438 C25.9651163,5.55135521 23.1395349,5.55135521 21.3604651,7.34593438 C20.5232558,8.29600571 20.1046512,9.35164051 20,10.4072753" id="Fill-3" fill="#FF2C75"></path>
                <path d="M6.48638658,15.2348066 C6.59161313,15.4502762 6.69683968,15.4502762 6.80206624,15.558011 L32.4773448,41.8453039 C32.5825714,42.0607735 32.7930245,42.1685083 33.0034776,42.3839779 L33.2139307,42.5994475 C34.2661962,43.461326 35.5289148,44 37.0020866,44 C40.2641097,44 43,41.3066298 43,37.859116 C43,36.4585635 42.4738672,35.1657459 41.7372814,34.0883978 L41.5268283,33.8729282 C41.3163752,33.6574586 41.1059221,33.3342541 40.7902424,33.1187845 L15.3254169,7.04696133 C15.2201904,6.93922652 15.1149638,6.83149171 15.0097373,6.72375691 L14.7992842,6.50828729 C13.7470186,5.64640884 12.4843,5 11.0111283,5 C7.7491052,5 5.01321486,7.69337017 5.01321486,11.140884 C4.90798831,12.7569061 5.43412106,14.1574586 6.48638658,15.2348066" id="Fill-5" fill="#FFFFFF"></path>
                <path d="M11.0897929,17.6483516 C11.1971399,17.7545788 11.1971399,17.8608059 11.3044868,17.8608059 L31.0563257,37.4065934 C31.1636726,37.5128205 31.2710196,37.6190476 31.3783665,37.8315018 L31.4857135,37.9377289 C32.2371421,38.5750916 33.3106116,39 34.3840811,39 C36.9604079,39 39,36.981685 39,34.4322344 C39,33.3699634 38.5706122,32.4139194 38.0338774,31.6703297 L37.9265305,31.5641026 L37.3897957,31.032967 L17.9599978,11.4871795 C17.8526508,11.3809524 17.7453039,11.2747253 17.6379569,11.1684982 L17.53061,11.0622711 C16.7791813,10.4249084 15.7057118,10 14.6322423,10 C12.0559155,10 10.0163234,12.018315 10.0163234,14.5677656 C9.9089765,15.7362637 10.3383643,16.7985348 11.0897929,17.6483516" id="Fill-7" fill="#FF4A68"></path>
                <g id="Group-11" transform="translate(0.000000, 18.000000)">
                    <mask id="mask-4" fill="white">
                        <use xlink:href="#path-3"></use>
                    </mask>
                    <g id="Clip-10"></g>
                    <path d="M5.58510638,12.4041667 L5.69148936,12.4041667 L6.0106383,12.4041667 L42.712766,12.5125 L43.4574468,12.5125 L43.7765957,12.5125 C45.1595745,12.4041667 46.4361702,11.8625 47.393617,10.7791667 C49.7340426,8.39583333 49.7340426,4.49583333 47.393617,2.00416667 C46.4361702,1.02916667 45.1595745,0.379166667 43.8829787,0.270833333 L43.6702128,0.270833333 L42.712766,0.270833333 L6.32978723,0.1625 L5.79787234,0.1625 L5.4787234,0.1625 C4.09574468,0.270833333 2.81914894,0.8125 1.75531915,1.89583333 C-0.585106383,4.27916667 -0.585106383,8.17916667 1.75531915,10.6708333 C2.60638298,11.7541667 4.09574468,12.2958333 5.58510638,12.4041667" id="Fill-9" fill="#FFFFFF" mask="url(#mask-4)"></path>
                </g>
                <path d="M10.4072753,29 L10.7239658,29 L38.1704708,29 L38.6982882,29 L38.9094151,29 C39.8594864,28.8953488 40.9151213,28.4767442 41.6540656,27.744186 C43.4486448,25.9651163 43.4486448,23.1395349 41.6540656,21.3604651 C40.9151213,20.627907 39.9650499,20.2093023 39.0149786,20.1046512 L38.8038516,20.1046512 L38.0649073,20.1046512 L10.8295292,20 L10.4072753,20 L10.1961484,20 C9.14051355,20.1046512 8.19044223,20.5232558 7.34593438,21.255814 C5.55135521,23.0348837 5.55135521,25.8604651 7.34593438,27.6395349 C8.29600571,28.4767442 9.35164051,29 10.4072753,29" id="Fill-12" fill="#FF2C75"></path>
                <path d="M15.3140496,41.5112032 C15.5289256,41.4056795 15.5289256,41.3001558 15.6363636,41.1946321 L41.8512397,15.5523709 C42.0661157,15.4468472 42.1735537,15.2357997 42.3884298,15.0247523 L42.6033058,14.8137049 C43.4628099,13.7584678 44,12.4921833 44,11.0148514 C44,7.74361643 41.3140496,5 37.8760331,5 C36.4793388,5 35.1900826,5.52761854 34.1157025,6.26628451 L33.9008264,6.47733192 C33.6859504,6.68837934 33.3636364,6.89942676 33.1487603,7.21599788 L7.04132231,32.6472117 C6.9338843,32.7527354 6.82644628,32.8582591 6.71900826,32.9637828 L6.50413223,33.1748302 C5.6446281,34.2300673 5,35.4963518 5,36.9736838 C5,40.2449187 7.68595041,42.9885352 11.1239669,42.9885352 C12.7355372,43.0940589 14.2396694,42.4609166 15.3140496,41.5112032" id="Fill-14" fill="#FFFFFF"></path>
                <path d="M17.6483516,37.8228782 C17.7545788,37.7158672 17.8608059,37.7158672 17.8608059,37.6088561 L37.4065934,17.9188192 C37.5128205,17.8118081 37.6190476,17.704797 37.8315018,17.597786 L37.9377289,17.4907749 C38.5750916,16.7416974 39,15.6715867 39,14.601476 C39,12.0332103 36.981685,10 34.4322344,10 C33.3699634,10 32.4139194,10.4280443 31.6703297,10.9630996 L31.5641026,11.0701107 L31.032967,11.6051661 L11.4871795,31.0811808 C11.3809524,31.1881919 11.2747253,31.295203 11.1684982,31.402214 L11.0622711,31.5092251 C10.4249084,32.2583026 10,33.3284133 10,34.398524 C10,36.9667897 12.018315,39 14.5677656,39 C15.7362637,39 16.7985348,38.5719557 17.6483516,37.8228782" id="Fill-16" fill="#FF4A68"></path>
            </g>
        </g>
    </g>
</svg>